<?xml version="1.0" encoding="UTF-8" standalone="no"?>
<svg
   xmlns:dc="http://purl.org/dc/elements/1.1/"
   xmlns:cc="http://creativecommons.org/ns#"
   xmlns:rdf="http://www.w3.org/1999/02/22-rdf-syntax-ns#"
   xmlns:svg="http://www.w3.org/2000/svg"
   xmlns="http://www.w3.org/2000/svg"
   xmlns:sodipodi="http://sodipodi.sourceforge.net/DTD/sodipodi-0.dtd"
   xmlns:inkscape="http://www.inkscape.org/namespaces/inkscape"
   version="1.1"
   id="svg2"
   width="15.733266in"
   height="11.983146in"
   viewBox="0 0 1510.3935 1150.382"
   sodipodi:docname="tiger.svg"
   inkscape:version="1.0.2 (e86c870879, 2021-01-15)">
  <metadata
     id="metadata8">
    <rdf:RDF>
      <cc:Work
         rdf:about="">
        <dc:format>image/svg+xml</dc:format>
        <dc:type
           rdf:resource="http://purl.org/dc/dcmitype/StillImage" />
        <dc:title></dc:title>
      </cc:Work>
    </rdf:RDF>
  </metadata>
  <defs
     id="defs6">
    <inkscape:path-effect
       effect="fillet_chamfer"
       id="path-effect973"
       is_visible="true"
       lpeversion="1"
       satellites_param="F,0,0,1,0,98,0,1 @ F,0,0,1,0,98,0,1 @ F,0,0,1,0,98,0,1 @ F,0,0,1,0,98,0,1"
       unit="px"
       method="auto"
       mode="F"
       radius="98"
       chamfer_steps="1"
       flexible="false"
       use_knot_distance="true"
       apply_no_radius="true"
       apply_with_radius="true"
       only_selected="false"
       hide_knots="false" />
    <inkscape:path-effect
       effect="fillet_chamfer"
       id="path-effect1280"
       is_visible="true"
       lpeversion="1"
       satellites_param="F,0,1,1,0,0,0,1 @ F,0,1,1,0,86,0,1 @ F,0,0,1,0,84.241631,0,1 @ F,0,1,1,0,83.644402,0,1 @ F,0,0,1,0,0,0,1 @ F,0,0,1,0,0,0,1"
       unit="px"
       method="auto"
       mode="F"
       radius="86"
       chamfer_steps="1"
       flexible="false"
       use_knot_distance="true"
       apply_no_radius="true"
       apply_with_radius="true"
       only_selected="true"
       hide_knots="false" />
  </defs>
  <sodipodi:namedview
     pagecolor="#ffffff"
     bordercolor="#666666"
     borderopacity="1"
     objecttolerance="10"
     gridtolerance="10"
     guidetolerance="10"
     inkscape:pageopacity="0"
     inkscape:pageshadow="2"
     inkscape:window-width="1920"
     inkscape:window-height="1016"
     id="namedview4"
     showgrid="false"
     inkscape:zoom="0.46921876"
     inkscape:cx="572.25234"
     inkscape:cy="610.08328"
     inkscape:window-x="0"
     inkscape:window-y="27"
     inkscape:window-maximized="1"
     inkscape:current-layer="g10"
     inkscape:snap-global="false"
     units="in"
     inkscape:document-rotation="0"
     showguides="false"
     fit-margin-top="0"
     fit-margin-left="0"
     fit-margin-right="0"
     fit-margin-bottom="0">
    <inkscape:grid
       type="xygrid"
       id="grid846"
       originx="6.4672205"
       originy="160.01869" />
  </sodipodi:namedview>
  <g
     inkscape:groupmode="layer"
     inkscape:label="Image"
     id="g10"
     transform="translate(6.4672208,160.01869)">
    <rect
       style="opacity:0.995271;fill:#ffd5e5;fill-opacity:1;stroke:none;stroke-width:6.4;stroke-miterlimit:4;stroke-dasharray:none;stroke-opacity:1"
       id="rect985"
       width="1510.3936"
       height="1150.382"
       x="-6.4672208"
       y="-160.01869" />
    <path
       style="fill:#ffffff;fill-opacity:1;stroke:none;stroke-width:1px;stroke-linecap:butt;stroke-linejoin:miter;stroke-opacity:1"
       d="m 886.74789,917.26406 -15.1011,-4.6101 -7.6602,-7.843 -4.1487,-9.2175 4.0553,-25.5259 9.6191,-46.45347 6.037,-20.5048 -4.1733,0.91373 -6.7649,-62.62394 -24.39148,-42.81013 3.07628,-83.1416 1.2144,-60.91949 13.7248,-76.27039 23.6546,-51.08224 -29.1129,-117.31186 -32.75696,-145.50082 -20.2704,-122.87353 -23.44057,-94.799915 -5.30729,-40.556628 14.73015,-34.767267 35.69429,-15.86722 34.26218,1.71153 20.4388,8.59612 12.8597,17.53572 4.6785,40.159502 3.118,64.521958 4.3121,29.99011 -26.4585,132.73734 -20.8371,20.50072 -9.2424,35.03057 2.4128,39.08243 87.4152,-65.61106 99.99531,-7.66224 92.4133,48.93393 135.8986,36.41817 -7.9717,27.48229 -12.9392,15.85399 -15.0384,13.59956 -31.4661,28.92161 -26.1515,31.08524 39.3775,59.69098 34.3171,68.23239 18.3234,72.93923 10.0348,63.56387 -8.699,61.05969 -27.0927,47.94259 11.1482,45.74899 c 0,0 15.1869,44.60354 15.0854,82.15034 -0.1015,37.5468 -0.1015,37.5468 -0.1015,37.5468 l -19.3758,19.7706 -36.4982,4.6131 -19.4328,-13.4794 -13.597,-84.18107 -21.0556,-56.16713 -94.3548,-5.15196 -23.8585,4.69719 -29.7,2.88634 -19.88291,36.51539 -10.2195,68.38434 -20.5144,44.1761 z"
       id="path987" />
    <g
       id="g1204"
       transform="matrix(1.1850828,0,0,1.1847438,-163.95608,-128.58874)"
       style="stroke-width:0.843944">
      <g
         id="g1076"
         transform="matrix(0.90716257,0.02235183,-0.02406118,0.84271629,359.47277,36.269462)"
         style="stroke-width:0.964889">
        <path
           style="fill:#ff9955;fill-opacity:1;stroke:#000000;stroke-width:6.65773;stroke-linecap:round;stroke-linejoin:miter;stroke-miterlimit:4;stroke-dasharray:none;stroke-opacity:1"
           d="m 945.36812,380.88431 c 0,0 14.91561,-37.53218 54.37477,-48.9749 39.45911,-11.44272 48.72151,-79.88639 48.72151,-79.88639 0,0 3.5251,-44.65592 33.806,-48.10544 30.2809,-3.44952 30.5654,38.25272 26.5604,52.82007 -4.005,14.56734 -20.0305,70.36842 -33.4958,89.00651 -13.4652,18.6381 -14.4623,26.02404 -51.3698,38.4765 -36.90753,12.45245 -41.75657,45.06427 -41.75657,45.06427"
           id="path856"
           sodipodi:nodetypes="cscssssc" />
        <path
           style="fill:#000000;fill-opacity:1;stroke:#000000;stroke-width:0.964889px;stroke-linecap:round;stroke-linejoin:miter;stroke-opacity:1"
           d="m 980.9249,340.98087 c 0,0 12.35789,4.27938 15.52805,21.06093 3.17007,16.78155 7.25915,31.71419 7.25915,31.71419 l -14.20164,17.17269 c 0,0 -15.1846,-8.14341 -18.88677,-23.74011 -3.70217,-15.59669 -8.68092,-29.72629 -8.68092,-29.72629 z"
           id="path940" />
        <path
           style="fill:#000000;fill-opacity:1;stroke:#000000;stroke-width:0.964889px;stroke-linecap:round;stroke-linejoin:miter;stroke-opacity:1"
           d="m 1014.5584,387.26902 c 0,0 -5.2827,-17.05501 -2.9877,-29.50991 2.295,-12.45489 4.043,-24.91906 8.8236,-13.59048 4.7806,11.32859 10.2421,37.06515 10.2421,37.06515 z"
           id="path942" />
        <path
           style="fill:#000000;fill-opacity:1;stroke:#000000;stroke-width:0.964889px;stroke-linecap:round;stroke-linejoin:miter;stroke-opacity:1"
           d="m 1053.7316,229.42703 10.567,-16.47179 17.6159,-8.08805 c 0,0 0.6377,9.23375 -7.5087,14.69987 -8.1464,5.46612 -20.6742,9.85997 -20.6742,9.85997 z"
           id="path944" />
        <path
           style="fill:#000000;fill-opacity:1;stroke:#000000;stroke-width:0.964889px;stroke-linecap:round;stroke-linejoin:miter;stroke-opacity:1"
           d="m 1110.8444,243.30744 -9.3106,37.73435 c 0,0 -22.2962,-2.5565 -32.447,-18.27163 -10.1509,-15.71513 -3.0037,-19.04661 9.2754,-20.22545 12.2792,-1.17883 32.4822,0.76273 32.4822,0.76273 z"
           id="path946" />
        <path
           style="fill:#000000;fill-opacity:1;stroke:#000000;stroke-width:0.964889px;stroke-linecap:round;stroke-linejoin:miter;stroke-opacity:1"
           d="m 1062.7502,305.32593 c 0,0 -11.4407,-12.69329 -7.9808,-16.92239 3.4601,-4.22911 8.7304,-9.03854 16.8769,-2.79889 8.1466,6.23965 15.9506,16.54924 7.3485,22.46103 -8.602,5.9118 -10.1308,2.90649 -16.2446,-2.73975 z"
           id="path948" />
        <path
           style="fill:#000000;fill-opacity:1;stroke:#000000;stroke-width:0.964889px;stroke-linecap:round;stroke-linejoin:miter;stroke-opacity:1"
           d="m 1024.9383,314.52558 8.5735,-13.68008 c 0,0 20.4206,0.98567 27.3612,22.41428 6.9406,21.4286 14.3675,22.83077 14.3675,22.83077 l -17.3787,22.29035 c 0,0 -14.1885,-16.52907 -17.9785,-30.70904 -3.7898,-14.17997 -14.945,-23.14628 -14.945,-23.14628 z"
           id="path950" />
      </g>
      <path
         style="fill:#ff9955;fill-opacity:1;stroke:none;stroke-width:0.843944px;stroke-linecap:butt;stroke-linejoin:miter;stroke-opacity:1"
         d="m 1095.8738,769.38417 7.6375,-1.99362 13.0891,-1.60664 c 0,0 -2.9788,-7.92587 5.3889,11.44729 8.3677,19.37316 8.3677,19.41027 8.3677,19.41027 l 5.5365,22.22725 2.2455,23.14751 4.1266,24.27184 4.6522,14.3588 7.2197,7.0001 12.4856,2.0988 13.9705,-1.8866 8.6896,-4.8675 7.9701,-11.6474 3.238,-16.7118 -0.2266,-10.40105 -10.265,-51.98922 -6.7919,-41.77819 c 0,0 -5.7129,-12.85554 -4.3217,-14.21459 1.3911,-1.35904 13.1191,-21.25023 13.1191,-21.25023 l 6.4998,-19.3154 5.3277,-22.63298 5.3887,-23.78016 1.2629,-11.79977 -2.1048,-55.98793 0.8493,-16.45262 5.143,-7.92982 7.5573,24.09978 9.6041,48.98594 2.1222,43.59133 -9.1185,22.55678 -6.5695,18.55494 3.3135,18.58585 16.0972,49.92691 5.4517,29.39692 6.9412,43.87511 -1.1497,21.4472 -8.7302,23.0515 -16.1079,10.7773 -23.4653,7.0221 -28.5031,0.5254 -16.2054,-4.6049 -13.0887,-18.2832 -10.4486,-40.408 -4.9859,-37.40326 -8.0981,-24.73925 -9.7392,-14.59641 z"
         id="path1044" />
      <path
         style="fill:#ff9955;fill-opacity:1;stroke:none;stroke-width:0.843944px;stroke-linecap:butt;stroke-linejoin:miter;stroke-opacity:1"
         d="m 794.77754,30.753632 3.3669,25.4953 4.3901,23.85097 c 0,0 -3.43735,-10.47823 7.02604,26.081258 l 10.46339,36.5595 9.22673,38.21955 11.24687,45.95517 6.8322,43.12358 2.21974,18.03632 6.21529,28.93633 4.99163,32.58331 10.71248,31.9112 18.55802,29.02234 9.53506,17.10252 1.46058,21.37893 -12.2087,36.60767 -5.70872,19.31056 -18.2833,41.67354 -4.32249,20.35216 -1.04744,10.6042 3.33724,34.0106 -2.73269,29.52102 -2.5723,42.53606 -0.37112,9.82955 1.18045,10.42735 c 0,0 -0.71407,4.2913 7.63294,13.23755 l 7.21798,9.87974 0.75976,11.4052 0.4585,18.80514 4.42458,32.86618 -6.16764,27.37171 -6.1566,28.31657 -2.13338,13.53086 c 0,0 -0.27558,6.9143 0.34286,9.1332 0.61843,2.219 8.92265,9.0783 8.92265,9.0783 l 22.84459,8.5156 28.5033,3.7708 17.64839,-6.8241 9.33929,-9.9876 8.79626,-27.0262 -0.46186,-23.15358 3.61343,-18.25585 12.29153,-25.43335 6.82314,-7.51693 3.37706,-5.7692 37.43142,0.81474 c 0,0 -4.8933,-0.54029 -17.2916,6.18198 -12.39822,6.72228 -25.43825,28.05102 -25.43825,28.05102 l -6.96582,41.1173 c 0,0 -3.68572,31.94497 -8.83484,42.22217 -5.14913,10.2771 -17.51148,24.4529 -17.51148,24.4529 l -15.34943,7.1964 -30.9818,-0.066 -27.7456,-7.4701 -13.82621,-12.6597 -7.6306,-25.3713 8.11138,-59.06885 9.72332,-42.18985 -3.2213,-26.40665 -13.53934,-22.59368 -11.83967,-14.55089 -7.28069,-22.54707 -3.12533,-27.89915 3.18319,-33.59158 9.71323,-47.867 12.82201,-40.98403 17.1989,-61.4924 5.48602,-20.25454 -12.12776,-27.6608 -17.42934,-52.69983 -11.84782,-39.15413 -12.63778,-62.22145 -5.91121,-44.85603 -12.00351,-71.03764 -10.4822,-55.882338 c 0,0 -6.53455,-12.97133 -5.75066,-38.30468 l 0.78389,-25.33335 z"
         id="path1040"
         sodipodi:nodetypes="cccscccccccccccccccccccccscccccccsccccccccccccsccscccccccccccccccccccccccccscc" />
      <path
         style="fill:none;stroke:#000000;stroke-width:5.82322;stroke-linecap:round;stroke-linejoin:miter;stroke-miterlimit:4;stroke-dasharray:none;stroke-opacity:1"
         d="m 898.69937,102.76501 c 0,0 -2.39014,-60.977368 -5.96528,-86.234628 -3.57513,-25.2572602 -31.75178,-37.09149 -62.28797,-29.20583 -30.5362,7.8856698 -39.81727,29.80912 -39.08329,61.31169 0.73396,31.50257 28.09301,159.195288 33.69721,216.660578 5.60419,57.46527 42.26999,157.89306 42.26999,157.89306 0,0 10.52102,16.86072 11.12259,27.12459 0.60158,10.26386 -40.9332,140.38392 -44.26698,169.89337 -3.33378,29.50944 -5.69732,70.18354 12.98364,92.88004 18.68095,22.6965 21.25569,27.18842 21.11549,45.29604 -0.14019,18.10763 -14.58039,94.82075 -14.58039,94.82075 0,0 -8.60764,44.8064 25.48573,56.3929 34.09338,11.5865 56.0651,5.3935 56.0651,5.3935 0,0 26.03843,-3.113 35.39124,-55.8044 9.35282,-52.69138 6.61855,-46.75803 10.86176,-58.31216 4.2432,-11.55413 23.22429,-36.53682 57.28639,-34.68585 34.0622,1.85097 56.5897,-0.41858 65.8895,8.53869 9.2998,8.95727 19.9955,18.27674 26.9362,70.5815 6.9406,52.30482 14.448,74.72602 43.814,74.72602 29.3661,0 79.3657,-1.1818 74.1515,-67.451 -5.2143,-66.26931 -32.5677,-135.83064 -32.5677,-135.83064 l 14.8782,-42.02509"
         id="path848"
         sodipodi:nodetypes="csssscsssscscssssssscc" />
      <path
         style="fill:none;stroke:#000000;stroke-width:5.82322;stroke-linecap:round;stroke-linejoin:miter;stroke-miterlimit:4;stroke-dasharray:none;stroke-opacity:1"
         d="m 967.90829,760.61905 c 0,0 17.48741,5.35084 35.00501,6.06778"
         id="path850" />
      <path
         style="fill:none;stroke:#000000;stroke-width:5.82322;stroke-linecap:round;stroke-linejoin:miter;stroke-miterlimit:4;stroke-dasharray:none;stroke-opacity:1"
         d="m 1103.5113,767.39055 c 0,0 8.693,0.73865 21.5783,-4.00274"
         id="path852" />
      <path
         style="fill:#000000;fill-opacity:1;stroke:#000000;stroke-width:1.94107;stroke-linecap:round;stroke-linejoin:miter;stroke-miterlimit:4;stroke-dasharray:none;stroke-opacity:1"
         d="m 853.68346,83.988832 c 0,0 -26.57169,14.68521 -33.67855,3.9324 -7.10685,-10.75281 -2.92552,-32.25781 1.60718,-42.66092 4.53272,-10.40312 9.72815,-20.21057 16.77886,-19.16276 7.05072,1.04781 11.05049,-2.58907 32.83675,17.89912 21.78626,20.48818 -0.60023,33.22622 -5.25123,35.67244 -4.651,2.44621 -12.29301,4.31972 -12.29301,4.31972 z"
         id="path878" />
      <path
         style="fill:#000000;fill-opacity:1;stroke:#000000;stroke-width:0.843944px;stroke-linecap:round;stroke-linejoin:miter;stroke-opacity:1"
         d="m 800.52492,41.483832 c 0,0 2.40576,-9.77327 6.5376,-9.54509 4.13185,0.22817 8.20153,-0.51197 9.26981,8.66801 1.06829,9.17997 -2.88762,13.54959 -5.84683,14.29413 -2.95921,0.74455 -11.63854,2.79705 -9.96058,-13.41705 z"
         id="path880" />
      <path
         style="fill:#000000;fill-opacity:1;stroke:#000000;stroke-width:0.843944px;stroke-linecap:round;stroke-linejoin:miter;stroke-opacity:1"
         d="m 830.09712,21.955292 c 0,0 -8.64789,2.81581 -12.69594,-2.58718 -4.04806,-5.40299 1.23725,-12.7342002 4.99047,-14.7827502 3.75321,-2.04854 12.83499,-3.67685996 13.80201,3.34445 0.96703,7.0213202 -1.9895,11.0689002 -6.09654,14.0254802 z"
         id="path882" />
      <path
         style="fill:#000000;fill-opacity:1;stroke:#000000;stroke-width:0.843944px;stroke-linecap:round;stroke-linejoin:miter;stroke-opacity:1"
         d="m 851.19466,19.006322 c 0,0 -7.60056,-4.20898 -6.02325,-11.8890902 1.57732,-7.68011996 10.11758,-9.4955 14.7358,-4.97392 4.61821,4.52158 9.39604,8.6496502 7.62744,14.3362602 -1.76861,5.68659 -13.12483,4.62915 -16.33999,2.52675 z"
         id="path886" />
      <path
         style="fill:#000000;fill-opacity:1;stroke:#000000;stroke-width:0.843944px;stroke-linecap:round;stroke-linejoin:miter;stroke-opacity:1"
         d="m 872.71628,40.028252 c 0,0 -7.99666,-6.98582 -2.12585,-12.92913 5.87081,-5.94332 10.01801,-2.04127 12.74262,1.69117 2.72459,3.73244 2.99279,8.03642 0.0643,10.51995 -2.92841,2.48353 -6.92622,3.49158 -10.68115,0.71801 z"
         id="path888" />
      <path
         style="fill:#000000;fill-opacity:1;stroke:#000000;stroke-width:0.843944px;stroke-linecap:round;stroke-linejoin:miter;stroke-opacity:1"
         d="m 800.63335,109.97176 c 0,0 7.98166,-0.33488 14.98775,-1.85586 7.00609,-1.52099 20.85492,-6.64383 16.14415,1.27883 -4.71078,7.92268 -28.23981,16.41978 -28.23981,16.41978 z"
         id="path890" />
      <path
         style="fill:#000000;fill-opacity:1;stroke:#000000;stroke-width:0.843944px;stroke-linecap:round;stroke-linejoin:miter;stroke-opacity:1"
         d="m 807.06343,150.29102 c 0,0 8.26676,-0.29545 15.50959,-2.18277 7.24285,-1.88732 14.54843,-0.26328 11.06736,5.92715 -3.48108,6.19043 -17.65972,16.30043 -21.56562,17.41804 -3.9059,1.11762 -5.01133,-21.16242 -5.01133,-21.16242 z"
         id="path892" />
      <path
         style="fill:#000000;fill-opacity:1;stroke:#000000;stroke-width:0.843944px;stroke-linecap:round;stroke-linejoin:miter;stroke-opacity:1"
         d="m 814.96971,189.99373 c 0,0 15.63842,-3.89596 22.0412,-6.30995 6.40278,-2.41398 10.44696,-6.14612 17.89057,-5.90481 7.44363,0.24132 6.4784,12.15006 3.67472,16.6338 -2.80366,4.48375 -21.1277,19.71464 -26.6679,22.59839 -5.54022,2.88373 -12.03677,4.36115 -12.03677,4.36115 z"
         id="path894" />
      <path
         style="fill:#000000;fill-opacity:1;stroke:#000000;stroke-width:0.843944px;stroke-linecap:round;stroke-linejoin:miter;stroke-opacity:1"
         d="m 822.61822,244.17425 c 0,0 11.59401,-8.85028 18.13505,-11.12974 6.54104,-2.27946 12.41178,-9.13994 15.97525,-5.33216 3.56347,3.80779 2.54603,14.76532 -1.15987,19.91737 -3.7059,5.15205 -24.30134,27.08694 -28.28769,30.08627 -3.98635,2.99933 -4.66274,-33.54174 -4.66274,-33.54174 z"
         id="path896" />
      <path
         style="fill:#000000;fill-opacity:1;stroke:#000000;stroke-width:0.843944px;stroke-linecap:round;stroke-linejoin:miter;stroke-opacity:1"
         d="m 859.2605,397.54782 c 0,0 6.65645,-4.37287 9.39016,-2.7617 2.73369,1.61116 2.60713,12.65885 2.60713,12.65885 l -0.53894,17.45507 z"
         id="path902" />
      <path
         style="fill:#000000;fill-opacity:1;stroke:#000000;stroke-width:0.843944px;stroke-linecap:round;stroke-linejoin:miter;stroke-opacity:1"
         d="m 868.26608,496.79042 c 0,0 25.7172,5.96356 39.95754,6.6067 14.24032,0.64314 35.73548,-0.7565 39.34033,6.03971 3.60487,6.79622 -8.07702,13.09136 -13.45894,15.16346 -5.38192,2.07211 -51.48435,10.18862 -63.17259,10.85618 -11.68823,0.66755 -15.35273,0.46089 -15.35273,0.46089 z"
         id="path904" />
      <path
         style="fill:#000000;fill-opacity:1;stroke:#000000;stroke-width:0.843944px;stroke-linecap:round;stroke-linejoin:miter;stroke-opacity:1"
         d="m 839.0328,599.09827 c 0,0 26.73811,4.45241 40.11536,3.99934 13.37726,-0.45307 36.51586,-3.70462 45.94634,-3.93127 9.43047,-0.22666 23.38281,6.49578 11.71624,13.73585 -11.66658,7.24008 -45.26306,16.55756 -59.28197,19.65182 -14.0189,3.09426 -44.4136,5.50355 -44.4136,5.50355 z"
         id="path906" />
      <path
         style="fill:#000000;fill-opacity:1;stroke:#000000;stroke-width:0.843944px;stroke-linecap:round;stroke-linejoin:miter;stroke-opacity:1"
         d="m 868.72492,747.09092 c 0,0 22.56576,9.25636 35.66981,11.2489 13.10405,1.99254 37.57683,0.14766 34.84966,10.1521 -2.72718,10.00446 -25.30646,11.45387 -32.32588,13.04729 -7.01941,1.59341 -33.697,0.17169 -38.6054,-1.04442 -4.9084,-1.21611 0.41181,-33.40387 0.41181,-33.40387 z"
         id="path908" />
      <path
         style="fill:#000000;fill-opacity:1;stroke:#000000;stroke-width:0.843944px;stroke-linecap:round;stroke-linejoin:miter;stroke-opacity:1"
         d="m 863.12257,806.96926 c 0,0 10.78604,4.56122 19.8351,4.47508 9.04907,-0.0861 23.71451,-4.49604 32.72157,-1.59641 9.00706,2.89964 6.29998,12.94242 -3.6116,19.70259 -9.91158,6.76017 -54.37287,7.48738 -54.37287,7.48738 z"
         id="path910" />
      <path
         style="fill:#000000;fill-opacity:1;stroke:#000000;stroke-width:0.843944px;stroke-linecap:round;stroke-linejoin:miter;stroke-opacity:1"
         d="m 996.75527,741.44901 c -7.86037,-5.49617 -10.4645,-7.40383 -4.97278,-15.49839 5.49172,-8.09455 14.06121,0.24506 14.22651,3.06821 0.1654,2.82316 -2.7838,13.7856 -9.25373,12.43018 z"
         id="path912" />
      <path
         style="fill:#000000;fill-opacity:1;stroke:#000000;stroke-width:0.843944px;stroke-linecap:round;stroke-linejoin:miter;stroke-opacity:1"
         d="m 982.48497,704.07408 c 0,0 -6.00619,5.20646 -14.31351,1.35702 -8.30732,-3.84946 -4.65103,-12.01571 4.14995,-15.62991 8.80098,-3.61419 19.82192,-2.19865 20.01422,1.10959 0.19229,3.30822 -9.85066,13.1633 -9.85066,13.1633 z"
         id="path914" />
      <path
         style="fill:#000000;fill-opacity:1;stroke:#000000;stroke-width:0.843944px;stroke-linecap:round;stroke-linejoin:miter;stroke-opacity:1"
         d="m 935.35703,684.8203 c 0,0 -14.40975,2.32862 -30.31738,-1.4214 -15.90761,-3.75002 -17.46707,-11.82142 -7.90385,-16.7893 9.56323,-4.96789 38.80721,-8.14751 47.64725,-8.6988 8.84004,-0.55128 28.92372,1.82778 29.13753,9.09765 0.21382,7.26988 -16.71345,17.11531 -38.56355,17.81185 z"
         id="path916" />
      <path
         style="fill:#000000;fill-opacity:1;stroke:#000000;stroke-width:0.843944px;stroke-linecap:round;stroke-linejoin:miter;stroke-opacity:1"
         d="m 963.48549,641.03867 c 0,0 -20.27975,3.59848 -20.95687,-5.60485 -0.67713,-9.20334 10.49346,-12.29148 16.09783,-12.35242 5.60437,-0.0609 16.95833,1.32567 17.01661,7.3967 0.0583,6.07103 -4.62533,9.17309 -12.15757,10.56057 z"
         id="path918" />
      <path
         style="fill:#000000;fill-opacity:1;stroke:#000000;stroke-width:0.843944px;stroke-linecap:round;stroke-linejoin:miter;stroke-opacity:1"
         d="m 1007.0919,609.0034 c 0,0 -22.65923,0.5269 -28.02208,-5.46937 -5.36283,-5.99627 3.6631,-17.68827 20.36983,-16.05061 16.70675,1.63767 46.01755,2.57539 42.27235,16.16848 -3.7451,13.59309 -28.061,5.99922 -34.6201,5.3515 z"
         id="path920" />
      <path
         style="fill:#000000;fill-opacity:1;stroke:#000000;stroke-width:0.843944px;stroke-linecap:round;stroke-linejoin:miter;stroke-opacity:1"
         d="m 1065.0792,739.96774 c 0,0 -12.8355,-2.0346 -8.7352,-9.91713 4.1003,-7.88252 10.71,-8.65554 14.4816,-2.16013 3.7717,6.4954 1.1836,12.58059 -5.7464,12.07726 z"
         id="path922" />
      <path
         style="fill:#000000;fill-opacity:1;stroke:#000000;stroke-width:0.843944px;stroke-linecap:round;stroke-linejoin:miter;stroke-opacity:1"
         d="m 1070.5279,705.83372 c 0,0 -11.324,4.46158 -14.6949,-0.95476 -3.3709,-5.41633 4.5619,-11.7662 11.4073,-11.7662 6.8454,0 22.3862,2.41639 3.2876,12.72096 z"
         id="path924" />
      <path
         style="fill:#000000;fill-opacity:1;stroke:#000000;stroke-width:0.843944px;stroke-linecap:round;stroke-linejoin:miter;stroke-opacity:1"
         d="m 1088.1435,646.17142 c 0,0 -20.3399,5.65763 -25.0153,-5.421 -4.6754,-11.07862 10.1432,-12.8812 19.5431,-13.64926 9.3998,-0.76807 18.4256,-2.878 16.282,7.59943 -2.1437,10.47742 -5.3075,9.86911 -10.8098,11.47083 z"
         id="path926" />
      <path
         style="fill:#000000;fill-opacity:1;stroke:#000000;stroke-width:0.843944px;stroke-linecap:round;stroke-linejoin:miter;stroke-opacity:1"
         d="m 1219.4885,725.16395 c 0,0 -7.3239,19.57866 -27.78,30.23676 -20.4562,10.65809 -41.2437,20.18611 -35.8652,27.77897 5.3784,7.59285 21.5524,8.91123 42.9812,2.61145 21.4288,-6.29979 35.6624,-10.78452 35.6624,-10.78452 z"
         id="path928" />
      <path
         style="fill:#000000;fill-opacity:1;stroke:#000000;stroke-width:0.843944px;stroke-linecap:round;stroke-linejoin:miter;stroke-opacity:1"
         d="m 1239.1367,790.13731 c 0,0 -16.3049,12.24615 -36.7662,18.33956 -20.4611,6.09341 -35.0663,6.53454 -31.4931,14.61514 3.5733,8.0806 25.0966,11.67 42.5151,9.52695 17.4185,-2.14305 32.2787,-7.5027 32.2787,-7.5027 z"
         id="path930" />
      <path
         style="fill:#000000;fill-opacity:1;stroke:#000000;stroke-width:0.843944px;stroke-linecap:round;stroke-linejoin:miter;stroke-opacity:1"
         d="m 1141.513,669.03749 c 0,0 -49.2519,-6.80208 -46.8776,9.91798 2.3744,16.72005 36.4598,13.12903 47.2426,12.1993 10.7828,-0.92973 45.2328,-2.81902 43.7473,-18.06197 -1.4856,-15.24295 -32.013,-4.43216 -44.1123,-4.05531 z"
         id="path932" />
      <path
         style="fill:#000000;fill-opacity:1;stroke:#000000;stroke-width:0.843944px;stroke-linecap:round;stroke-linejoin:miter;stroke-opacity:1"
         d="m 1221.9291,581.20029 c 0,0 -35.8194,20.5363 -72.9069,20.04195 -37.0875,-0.49435 -35.6968,13.29964 -36.0538,14.43181 -0.357,1.13218 -1.1059,9.60229 65.3644,13.84478 66.4704,4.24248 51.5796,-6.10796 51.5796,-6.10796 z"
         id="path934"
         sodipodi:nodetypes="cssscc" />
      <path
         style="fill:#000000;fill-opacity:1;stroke:#000000;stroke-width:0.843944px;stroke-linecap:round;stroke-linejoin:miter;stroke-opacity:1"
         d="m 1189.8854,487.51495 c 0,0 -20.445,22.65088 -39.4036,27.51053 -18.9587,4.85966 -38.079,10.3251 -37.0973,18.85387 0.9818,8.52876 18.9198,14.21933 44.3743,10.10876 25.4546,-4.11057 49.6827,-11.71252 49.6827,-11.71252 z"
         id="path936"
         sodipodi:nodetypes="cssscc" />
      <path
         style="fill:#000000;fill-opacity:1;stroke:#000000;stroke-width:0.843944px;stroke-linecap:round;stroke-linejoin:miter;stroke-opacity:1"
         d="m 972.44495,538.98862 c 0,0 -75.6738,17.8669 -73.18205,30.90215 2.49174,13.03526 23.8821,9.07066 38.68168,4.93704 14.79958,-4.13362 35.16012,-14.77568 49.44887,-13.85691 14.28875,0.91879 32.87905,2.68858 56.37985,12.69459 23.5008,10.00602 48.1007,5.60589 55.3649,4.29975 7.2641,-1.30614 27.5277,-5.0509 26.7657,-11.39159 -0.762,-6.34069 -22.1775,-9.5466 -44.8575,-8.95767 -22.68,0.58894 -27.1129,-12.66208 -49.2338,-14.87378 -22.1208,-2.21171 -39.23102,-10.26891 -59.36765,-3.75358 z"
         id="path938" />
      <g
         id="g1113"
         transform="matrix(0.90748161,0,0,0.84301266,320.43416,19.478892)"
         style="stroke-width:0.964889">
        <path
           style="fill:#ff9955;fill-opacity:1;stroke:none;stroke-width:0.964889px;stroke-linecap:butt;stroke-linejoin:miter;stroke-opacity:1"
           d="m 905.50478,508.79506 c -2.36384,-2.79897 -39.86879,-14.31765 -20.31595,-53.57251 9.22148,0.17377 36.65616,-22.34787 36.65616,-22.34787 0,0 -1.4276,0.44111 -2.14139,0.66167 -0.7138,0.22055 -0.7138,0.22055 2.14139,-0.66167 5.71038,-1.76445 6.3119,-7.1946 6.3119,-7.1946 l 0.58232,-7.4042 18.08903,-0.93844 16.72227,-16.54097 9.81029,-22.06223 -10.29042,27.59856 31.33684,44.8691 19.89508,35.51754 13.5636,27.46415 13.1185,39.2011 13.0452,39.20317 8.5841,52.71674 8.2525,48.11679 13.8413,49.07514 12.996,51.44612 6.9639,36.02498 -9.2389,24.34363 -19.1512,14.60221 -30.5316,4.75984 -36.6712,-15.40401 -22.332,-31.93746 C 981.22364,627.42066 950.88409,576.9482 905.50478,508.79506 Z"
           id="path1042"
           sodipodi:nodetypes="cccsscccccccccccccccccccccc" />
        <path
           style="fill:none;stroke:#000000;stroke-width:6.65773;stroke-linecap:round;stroke-linejoin:miter;stroke-miterlimit:4;stroke-dasharray:none;stroke-opacity:1"
           d="m 905.50478,508.79506 c 0,0 33.62364,40.86291 49.33973,95.3719 15.7161,54.50899 23.42722,98.43848 28.56363,133.17201 5.1365,34.73352 -5.97917,72.67857 5.27353,94.16056 11.25271,21.48199 27.22943,39.55627 63.08763,41.30482 35.8583,1.74855 54.8144,-25.70717 52.2441,-52.2404 -2.5704,-26.53323 -36.5126,-125.7691 -39.1012,-160.73498 -2.5886,-34.96588 -24.7345,-131.48062 -51.8414,-178.97433 -27.10684,-47.49371 -26.10796,-33.9509 -49.1993,-76.86266"
           id="path854"
           sodipodi:nodetypes="csssssssc" />
        <path
           style="fill:#000000;fill-opacity:1;stroke:#000000;stroke-width:0.964889px;stroke-linecap:round;stroke-linejoin:miter;stroke-opacity:1"
           d="m 971.63948,416.88144 c 0,0 -9.37129,22.63511 -20.53606,32.43092 -11.16485,9.79582 -18.18372,26.15978 -8.81321,28.91593 9.37051,2.75616 37.58542,-13.48562 37.58542,-13.48562 l 14.53159,-13.54077 z"
           id="path952" />
        <path
           style="fill:#000000;fill-opacity:1;stroke:#000000;stroke-width:0.964889px;stroke-linecap:round;stroke-linejoin:miter;stroke-opacity:1"
           d="m 1006.7458,471.56154 c 0,0 -8.31953,9.38346 -14.51055,12.49755 -6.19095,3.1141 -17.49267,14.53662 -12.43505,16.20269 5.05762,1.66606 16.88031,2.83324 22.4558,1.95138 5.5755,-0.88186 18.8106,-4.70368 18.8106,-4.70368 z"
           id="path954" />
        <path
           style="fill:#000000;fill-opacity:1;stroke:#000000;stroke-width:0.964889px;stroke-linecap:round;stroke-linejoin:miter;stroke-opacity:1"
           d="m 1029.9482,519.66829 c 0,0 -14.8153,16.30399 -25.4979,22.08802 -10.68244,5.78403 -27.92252,19.47662 -23.83132,22.73235 4.09128,3.25573 20.39382,10.12888 37.11632,8.5023 16.7225,-1.62659 26.9854,-9.9884 26.9854,-9.9884 z"
           id="path956" />
        <path
           style="fill:#000000;fill-opacity:1;stroke:#000000;stroke-width:0.964889px;stroke-linecap:round;stroke-linejoin:miter;stroke-opacity:1"
           d="m 1047.621,575.73591 c 0,0 -20.8804,13.90705 -33.9751,18.98894 -13.0948,5.08189 -27.76495,13.21474 -17.80203,22.10666 9.96283,8.89192 29.28993,8.97485 37.16033,7.20598 7.8704,-1.76887 24.477,-11.65014 24.477,-11.65014 z"
           id="path958" />
        <path
           style="fill:#000000;fill-opacity:1;stroke:#000000;stroke-width:0.964889px;stroke-linecap:round;stroke-linejoin:miter;stroke-opacity:1"
           d="m 1062.6137,645.3046 c 0,0 -2.5764,4.43676 -10.8101,7.50806 -8.2336,3.0713 -25.4186,5.6383 -16.433,12.08593 8.9855,6.44763 28.4093,6.75498 28.4093,6.75498 z"
           id="path960" />
        <path
           style="fill:#000000;fill-opacity:1;stroke:#000000;stroke-width:0.964889px;stroke-linecap:round;stroke-linejoin:miter;stroke-opacity:1"
           d="m 1070.8662,693.42139 c 0,0 -4.5774,3.42561 -17.5634,5.40989 -12.9858,1.98428 -13.6568,16.68084 -4.4438,19.68348 9.2129,3.00264 28.0977,2.11678 28.0977,2.11678 z"
           id="path962" />
        <path
           style="fill:#000000;fill-opacity:1;stroke:#000000;stroke-width:0.964889px;stroke-linecap:round;stroke-linejoin:miter;stroke-opacity:1"
           d="m 1085.7936,752.13008 c 0,0 -18.3583,0.36824 -32.012,2.292 -13.6537,1.92376 -21.7038,-8.19328 -30.5416,-1.90858 -8.8378,6.28469 -5.6055,18.24419 14.374,23.54617 19.9796,5.30198 60.0895,17.88298 60.0895,17.88298 z"
           id="path964" />
        <path
           style="fill:#000000;fill-opacity:1;stroke:#000000;stroke-width:0.964889px;stroke-linecap:round;stroke-linejoin:miter;stroke-opacity:1"
           d="m 1103.0359,814.13177 c 0,0 -30.7843,-4.39084 -42.2797,-10.28645 -11.4954,-5.8956 -25.8735,-10.7718 -26.6243,-5.08525 -0.7507,5.68654 2.5615,21.99414 20.001,28.35986 17.4396,6.36572 45.4165,16.483 45.4165,16.483 z"
           id="path966" />
      </g>
      <path
         style="fill:none;stroke:#000000;stroke-width:3.37577;stroke-linecap:round;stroke-linejoin:miter;stroke-miterlimit:4;stroke-dasharray:none;stroke-opacity:1"
         d="m 800.76458,64.476722 c 0,0 1.76231,16.58631 3.08341,23.62561 1.32109,7.03931 5.71259,18.078828 5.71259,18.078828"
         id="path968" />
      <path
         style="fill:none;stroke:#000000;stroke-width:3.37577;stroke-linecap:round;stroke-linejoin:miter;stroke-miterlimit:4;stroke-dasharray:none;stroke-opacity:1"
         d="m 815.02779,124.16324 4.99618,18.57742"
         id="path970" />
      <path
         style="fill:none;stroke:#000000;stroke-width:3.37577;stroke-linecap:round;stroke-linejoin:miter;stroke-miterlimit:4;stroke-dasharray:none;stroke-opacity:1"
         d="m 825.5322,168.74426 3.7185,12.21595"
         id="path972" />
      <path
         style="fill:none;stroke:#000000;stroke-width:3.37577;stroke-linecap:round;stroke-linejoin:miter;stroke-miterlimit:4;stroke-dasharray:none;stroke-opacity:1"
         d="m 838.67432,217.78821 1.6605,10.46434"
         id="path974" />
      <path
         style="fill:none;stroke:#000000;stroke-width:3.37577;stroke-linecap:round;stroke-linejoin:miter;stroke-miterlimit:4;stroke-dasharray:none;stroke-opacity:1"
         d="m 847.14085,268.1479 2.40866,19.92738"
         id="path976" />
      <path
         style="fill:none;stroke:#000000;stroke-width:3.37577;stroke-linecap:round;stroke-linejoin:miter;stroke-miterlimit:4;stroke-dasharray:none;stroke-opacity:1"
         d="m 855.7648,317.01161 4.99163,32.58331"
         id="path978" />
      <path
         style="fill:none;stroke:#000000;stroke-width:3.37577;stroke-linecap:round;stroke-linejoin:miter;stroke-miterlimit:4;stroke-dasharray:none;stroke-opacity:1"
         d="m 871.46891,381.50612 c 0,0 29.33788,40.4395 30.0981,56.31686 0.76022,15.87736 -16.4417,56.16668 -16.4417,56.16668"
         id="path980"
         sodipodi:nodetypes="csc" />
      <path
         style="fill:none;stroke:#000000;stroke-width:3.37577;stroke-linecap:round;stroke-linejoin:miter;stroke-miterlimit:4;stroke-dasharray:none;stroke-opacity:1"
         d="m 865.47375,544.19572 c 0,0 -5.15074,18.12066 -6.12494,26.85128 -0.9742,8.73063 0.68105,29.36863 0.68105,29.36863"
         id="path982" />
      <path
         style="fill:none;stroke:#000000;stroke-width:3.37577;stroke-linecap:round;stroke-linejoin:miter;stroke-miterlimit:4;stroke-dasharray:none;stroke-opacity:1"
         d="m 859.3423,638.42662 c 0,0 -2.16507,18.08491 -1.92034,32.71439 0.24473,14.62949 -3.38709,18.69345 1.97214,33.01052 5.35924,14.31707 15.25048,16.37092 13.85159,28.63038"
         id="path984" />
      <path
         style="fill:none;stroke:#000000;stroke-width:3.37577;stroke-linecap:round;stroke-linejoin:miter;stroke-miterlimit:4;stroke-dasharray:none;stroke-opacity:1"
         d="m 879.51869,787.11304 -4.17576,18.52707"
         id="path986" />
      <path
         style="fill:none;stroke:#000000;stroke-width:3.37577;stroke-linecap:round;stroke-linejoin:miter;stroke-miterlimit:4;stroke-dasharray:none;stroke-opacity:1"
         d="m 866.83593,842.80902 c 0,0 -2.46917,11.97065 -2.53234,15.29545 -0.0632,3.3248 -3.43393,18.2249 20.40982,24.4839 23.84375,6.259 58.6571,16.9944 70.64008,-18.3901 11.98299,-35.38451 0.0163,-31.16362 6.95024,-54.39418 6.93384,-23.23057 20.68949,-38.20823 20.68949,-38.20823"
         id="path988" />
      <path
         style="fill:none;stroke:#000000;stroke-width:3.37577;stroke-linecap:round;stroke-linejoin:miter;stroke-miterlimit:4;stroke-dasharray:none;stroke-opacity:1"
         d="m 1119.2686,773.07251 c 0,0 9.6939,17.15357 14.2137,35.8616 4.5198,18.70803 5.8604,47.77216 9.113,57.84586 3.2527,10.0736 2.7341,25.911 31.6849,21.6418 28.9508,-4.2693 26.1567,-37.6098 25.9845,-44.19035"
         id="path990" />
      <path
         style="fill:none;stroke:#000000;stroke-width:3.37577;stroke-linecap:round;stroke-linejoin:miter;stroke-miterlimit:4;stroke-dasharray:none;stroke-opacity:1"
         d="m 1192.9735,805.53986 -2.9738,-13.29766"
         id="path992" />
      <path
         style="fill:none;stroke:#000000;stroke-width:3.37577;stroke-linecap:round;stroke-linejoin:miter;stroke-miterlimit:4;stroke-dasharray:none;stroke-opacity:1"
         d="m 1183.4991,752.50684 -4.613,-16.25742 c 0,0 14.1899,-17.07673 18.9111,-38.39725 4.7213,-21.32053 5.8804,-21.63206 9.6051,-37.91984"
         id="path994"
         sodipodi:nodetypes="ccsc" />
      <path
         style="fill:#ff9955;fill-opacity:1;stroke:none;stroke-width:0.843944px;stroke-linecap:butt;stroke-linejoin:miter;stroke-opacity:1"
         d="m 857.9083,323.30214 10.18682,-5.26042 18.61476,-5.15912 11.46578,-13.11355 2.66006,-15.03816 13.66024,-9.97986 31.22326,-10.99485 30.02449,-1.83092 43.82309,4.96494 10.2499,4.16076 9.9001,7.40712 c 0,0 9.3388,3.26691 12.2692,5.65437 2.9303,2.38745 2.8791,2.38745 2.8791,2.38745 l 14.8781,5.06417 11.2474,1.61797 c 0,0 1.2541,-3.65836 5.2577,6.20211 l 4.0036,9.86047 c 0,0 11.7315,-0.52424 27.8272,6.44015 16.0958,6.9644 16.0958,7.01776 16.0958,7.01776 l 17.4843,-2.21863 20.5562,5.33876 8.3769,-3.31612 6.0337,0.39297 18.7483,7.15761 10.3364,-21.42802 0.049,-49.49005 -15.3708,-47.57288 -63.7886,-54.76268 -91.3346,-22.46569 -83.02006,12.15575 -33.15895,-10.63564 -44.22573,48.66481 -5.58129,51.10899 -10.22852,10.26501 -14.61179,29.70586 -2.18161,17.4259 z"
         id="path1038"
         sodipodi:nodetypes="cccccccccccscccscsccccccccccccccccccc" />
      <path
         style="fill:#ff9955;fill-opacity:1;stroke:#000000;stroke-width:0.843944px;stroke-linecap:butt;stroke-linejoin:miter;stroke-opacity:1"
         d="m 1107.3602,146.11277 c 0,0 28.4486,-25.60305 41.0958,-31.10793 12.6472,-5.5049 30.8085,-7.21563 41.6516,-5.8582 10.8431,1.35743 34.9014,15.98508 41.0736,25.39096 6.1721,9.40589 10.5165,28.04647 2.3382,43.1781 -8.1784,15.13164 -22.5624,32.1068 -29.3806,39.39471 -6.8181,7.28791 -33.8865,-40.39056 -33.8865,-40.39056 l -38.7649,-22.82286 z"
         id="path1036"
         sodipodi:nodetypes="csssssccc" />
      <path
         style="fill:#ffffff;fill-opacity:1;stroke:#000000;stroke-width:5.82322;stroke-linecap:round;stroke-linejoin:miter;stroke-miterlimit:4;stroke-dasharray:none;stroke-opacity:1"
         d="m 1136.6006,156.80349 c 0,0 19.8037,13.26774 26.9957,20.0387 7.192,6.77097 22.2316,19.86556 22.2316,19.86556 0,0 35.4683,-37.48491 10.6754,-54.47931 -24.7929,-16.99441 -47.5015,6.80795 -59.9027,14.57505 z"
         id="path1032" />
      <path
         style="fill:#000000;stroke:#000000;stroke-width:0.843944px;stroke-linecap:butt;stroke-linejoin:miter;stroke-opacity:1"
         d="m 880.29069,227.05799 c 0,0 -8.6939,-13.65494 -12.72788,-27.05566 -13.18685,-19.16041 -14.14811,-44.7728 -8.56914,-59.22173 2.43223,-3.75726 15.54516,-21.13448 26.64054,-24.67034 11.09538,-3.53586 19.66109,-9.62713 38.33187,-2.55532 18.67077,7.07182 40.1577,18.14586 43.90289,23.51394 3.74519,5.36807 -20.6211,15.76623 -32.3677,22.53069 -27.13429,15.19217 -30.29867,18.22194 -38.05779,29.62504 -6.6907,10.18201 -17.15279,37.83338 -17.15279,37.83338 z"
         id="path1034"
         sodipodi:nodetypes="cccsssccc" />
      <path
         style="fill:none;fill-opacity:1;stroke:#000000;stroke-width:5.82322;stroke-linecap:round;stroke-linejoin:miter;stroke-miterlimit:4;stroke-dasharray:none;stroke-opacity:1"
         d="m 979.93352,416.61815 c 0,0 -27.20227,13.16081 -36.43452,-13.16354 -18.53058,11.36743 -45.75434,-0.52703 -44.97726,-24.22258 0.48338,-14.73953 -48.12909,4.20971 -37.9771,-43.62696 -19.90881,-59.96027 5.46839,-90.62747 18.73525,-99.97336 -6.20826,-33.62971 -42.99892,-66.3746 -14.23704,-102.53769 43.94045,-55.247498 104.07921,6.70653 104.07921,6.70653 0,0 15.16396,-10.00799 60.33084,-10.31341 45.1669,-0.30542 84.5265,14.77907 84.5265,14.77907 0,0 38.4297,-57.627458 94.9243,-25.00153 61.6301,35.59177 4.0472,93.25928 -8.5036,99.03216 13.3465,26.66833 16.5064,36.15055 17.4876,49.57157 3.5328,48.31835 -14.5881,64.09987 -14.5881,64.09987 0,0 2.2288,13.51346 -10.6373,28.40492 -12.866,14.89145 -28.1695,12.88174 -28.1695,12.88174 0,0 -0.3789,5.0687 -13.2112,18.72653 -12.8323,13.65783 -29.4556,10.56528 -29.4556,10.56528 0,0 0.2013,8.95116 -9.9942,14.93171 -10.1955,5.98054 -23.1906,1.11583 -23.1906,1.11583 0,0 -2.1947,2.12727 -13.9452,3.82521 -11.7505,1.69794 -22.647,-5.99765 -22.647,-5.99765"
         id="path858"
         sodipodi:nodetypes="ccsccscscscscscscscsc" />
      <path
         style="fill:#ffffff;fill-opacity:1;stroke:#000000;stroke-width:5.82322;stroke-linecap:round;stroke-linejoin:miter;stroke-miterlimit:4;stroke-dasharray:none;stroke-opacity:1"
         d="m 904.56782,247.45975 c -4.82299,-7.55042 1.54098,-16.71141 5.35897,-19.30305 3.81799,-2.59163 9.60516,-9.34521 27.32739,-7.74657 17.72223,1.59864 15.35386,11.82908 14.72536,13.2368 -0.62852,1.40771 -2.73069,11.23753 -18.27132,10.03345 -10.87934,0.33838 -22.72017,12.28803 -29.1404,3.77937 z"
         id="path1000"
         sodipodi:nodetypes="cssscc" />
      <path
         style="fill:#e9afaf;fill-opacity:1;stroke:#000000;stroke-width:5.82322;stroke-linecap:round;stroke-linejoin:miter;stroke-miterlimit:4;stroke-dasharray:none;stroke-opacity:1"
         d="m 933.70822,243.68038 c 0,0 -2.73676,1.27782 -4.6822,-1.20154 -1.94544,-2.47937 -2.58202,-13.05857 1.8111,-14.13735 4.39312,-1.07877 5.83773,3.54077 5.56832,6.00479 -0.26942,2.46403 1.11554,7.38332 -2.69722,9.3341 z"
         id="path1002" />
      <path
         style="fill:#ffffff;fill-opacity:1;stroke:#000000;stroke-width:5.82322;stroke-linecap:round;stroke-linejoin:miter;stroke-miterlimit:4;stroke-dasharray:none;stroke-opacity:1"
         d="m 1021.219,242.35447 c -7.6735,-4.40934 -7.2616,-11.50482 -1.5042,-17.06006 5.7573,-5.55524 25.8435,-5.6068 34.5638,-3.06962 8.7204,2.53719 32.1694,11.69656 27.0214,22.9524 -5.1479,11.25582 -13.5438,12.0458 -19.5036,10.70196 -5.9599,-1.34384 -11.8794,-7.99239 -16.9595,-8.91459 -8.2745,-2.16415 -16.5437,-0.79717 -23.6179,-4.61009 z"
         id="path1004"
         sodipodi:nodetypes="csssscc" />
      <path
         style="fill:none;stroke:#000000;stroke-width:5.82322;stroke-linecap:round;stroke-linejoin:miter;stroke-miterlimit:4;stroke-dasharray:none;stroke-opacity:1"
         d="m 1050.2071,209.74532 c 0,0 9.3928,-1.82869 18.3708,2.98645 8.9779,4.81514 13.2345,8.93185 13.2345,8.93185"
         id="path1008" />
      <path
         style="fill:none;stroke:#000000;stroke-width:5.82322;stroke-linecap:round;stroke-linejoin:miter;stroke-miterlimit:4;stroke-dasharray:none;stroke-opacity:1"
         d="m 899.81782,223.39858 c 0,0 0.91322,-4.73208 10.52114,-8.85467 9.60792,-4.12259 15.65473,-4.41822 15.65473,-4.41822"
         id="path1010" />
      <path
         style="fill:none;stroke:#000000;stroke-width:5.82322;stroke-linecap:round;stroke-linejoin:miter;stroke-miterlimit:4;stroke-dasharray:none;stroke-opacity:1"
         d="m 866.36037,320.64491 c 0,0 1.82538,-3.56416 8.74538,-5.08544 6.91999,-1.52128 9.78177,-1.06212 14.61069,-5.54041 4.82891,-4.47829 8.90412,-11.92541 10.65569,-20.86735 1.75156,-8.94192 14.52345,-16.01778 18.44708,-16.51196"
         id="path1012"
         sodipodi:nodetypes="csssc" />
      <path
         style="fill:#000000;fill-opacity:1;stroke:#000000;stroke-width:5.82322;stroke-linecap:round;stroke-linejoin:miter;stroke-miterlimit:4;stroke-dasharray:none;stroke-opacity:1"
         d="m 955.9221,286.13076 c 0.20148,-0.16611 -3.75395,-20.623 -13.16189,-19.37256 -3.41612,0.45404 -6.91382,3.83113 -9.03407,3.62363 -2.12027,-0.20749 -2.14547,-6.45182 -0.0152,-8.56961 4.26069,-4.23561 12.59388,-6.75017 20.67598,-6.9369 8.08212,-0.18676 20.18523,0.6292 24.71876,4.17258 2.57955,2.01615 1.72066,11.22627 0.43357,12.02292 -1.28709,0.79666 -3.08926,-5.36698 -6.79929,-5.51291 -15.06486,-0.59255 -16.81793,20.57285 -16.81793,20.57285 z"
         id="path1014"
         sodipodi:nodetypes="csssssssc" />
      <path
         style="fill:none;stroke:#000000;stroke-width:5.82322;stroke-linecap:round;stroke-linejoin:miter;stroke-miterlimit:4;stroke-dasharray:none;stroke-opacity:1"
         d="m 918.67183,293.49647 c 0,0 -2.14796,14.42132 7.30114,17.5742 9.4491,3.15287 10.97735,2.57656 15.45003,-0.91861 4.4727,-3.49517 14.54883,-8.76466 14.5855,-22.3791 l 0.0367,-13.61445 c 0,0 -0.39865,21.6398 1.88461,26.08077 2.28326,4.44096 11.3175,14.50245 21.65017,13.5969 10.33267,-0.90556 20.08661,-2.5068 24.71272,-10.12974 4.6261,-7.62294 6.5441,-12.33016 7.4804,-16.64635"
         id="path1016"
         sodipodi:nodetypes="cssscsssc" />
      <path
         style="fill:none;stroke:#000000;stroke-width:5.82322;stroke-linecap:round;stroke-linejoin:miter;stroke-miterlimit:4;stroke-dasharray:none;stroke-opacity:1"
         d="m 921.83288,309.798 c 0,0 1.45392,23.60267 4.84643,22.73718 3.39252,-0.86551 6.37903,-18.32677 6.37903,-18.32677 z"
         id="path1018"
         sodipodi:nodetypes="cscc" />
      <path
         style="fill:none;stroke:#000000;stroke-width:5.82322;stroke-linecap:round;stroke-linejoin:miter;stroke-miterlimit:4;stroke-dasharray:none;stroke-opacity:1"
         d="m 978.3238,314.3183 c 0,0 3.408,15.33482 6.42217,17.15982 3.01417,1.82501 10.10064,-19.19601 10.10064,-19.19601 z"
         id="path1020" />
      <path
         style="fill:#ffaaaa;fill-opacity:1;stroke:#000000;stroke-width:5.82322;stroke-linecap:round;stroke-linejoin:miter;stroke-miterlimit:4;stroke-dasharray:none;stroke-opacity:1"
         d="m 936.71469,313.39142 6.19902,21.17702 c 0,0 1.94206,3.25688 -0.51699,10.42866 -2.45905,7.17179 -6.58588,19.02532 7.49518,20.01039 14.08108,0.98506 24.32525,-8.56399 28.96821,-15.75801 4.64296,-7.19403 4.87892,-17.38051 4.87892,-17.38051 v 0 l -8.35549,-18.1033 c 0,0 -17.53103,-6.79975 -19.18055,-13.68473 -1.64952,-6.88497 -2.70636,4.32909 -19.4883,13.31048 z"
         id="path1022"
         sodipodi:nodetypes="ccssscccsc" />
      <path
         style="fill:none;stroke:#000000;stroke-width:5.82322;stroke-linecap:round;stroke-linejoin:miter;stroke-miterlimit:4;stroke-dasharray:none;stroke-opacity:1"
         d="m 995.52206,265.03415 c 0,0 24.76614,0.12955 34.48164,6.92614 13.6235,9.53058 15.0489,8.69926 29.9504,16.54778 14.9016,7.84852 10.4015,-0.0369 20.6286,5.92522 10.2272,5.96216 4.067,14.3923 11.7184,16.91313 7.6515,2.52082 25.4488,1.94783 33.553,6.85973 8.1042,4.91189 10.3172,5.04679 17.6329,3.54167 7.3157,-1.50512 15.8306,0.97896 25.4267,3.19469 9.5961,2.21574 5.8992,-3.6431 17.7123,-2.043"
         id="path1024"
         sodipodi:nodetypes="csssssssc" />
      <path
         style="fill:#000000;fill-opacity:1;stroke:#000000;stroke-width:5.82322;stroke-linecap:round;stroke-linejoin:miter;stroke-miterlimit:4;stroke-dasharray:none;stroke-opacity:1"
         d="m 1212.7169,311.43783 c 0,0 -41.5415,-3.23286 -56.7839,-3.94539 -15.2425,-0.71252 -40.1667,-9.31225 -40.0608,-15.35118 0.106,-6.03894 11.8654,-7.83312 32.8081,-8.03066 20.9426,-0.19755 54.287,-8.79629 61.4259,-12.71357 7.1389,-3.91728 5.0937,-12.97983 3.4225,-17.61992 -1.6713,-4.64011 -6.3607,-9.78559 -6.3607,-9.78559 0,0 -29.6839,6.25893 -46.2598,5.47553 -16.5759,-0.78339 -43.9977,-3.745 -47.6727,-9.11555 -3.6749,-5.37057 17.4658,-9.98351 30.1851,-13.04483 12.7194,-3.06132 56.9795,-9.00983 56.9795,-9.00983 0,0 -13.6326,-19.87093 -18.4635,-23.48661 -4.8309,-3.61569 -25.5281,3.32882 -37.7322,4.84293 -12.2041,1.5141 -37.3682,6.78916 -41.012,2.336 -3.6438,-4.45314 47.9231,-25.66652 49.2889,-33.96806 1.3657,-8.30153 -12.0428,-8.63175 -27.3316,-15.9619 -8.3058,-3.98215 -44.2624,36.19968 -51.1083,33.16877 -6.846,-3.03092 13.5751,-41.58123 13.5751,-41.58123 0,1.34853 -14.7305,-6.36346 -34.6007,-7.34279 -37.6242,-1.85436 -53.71336,3.85087 -53.71336,3.85087 l -6.59593,20.20731 c 0,0 5.30224,0.7857 9.93199,1.80534 4.6298,1.01965 21.2954,8.00548 24.5985,12.16752 3.303,4.16205 -4.4661,5.54332 -15.369,3.99679 -10.9028,-1.54653 -22.49024,-3.89626 -22.49024,-3.89626 l -0.59411,11.54341 c 0,0 7.66923,3.69254 16.91915,4.90735 9.2499,1.21482 17.8544,4.35226 18.7158,7.49645 0.8615,3.14419 -9.0375,5.43176 -15.0375,4.28845 -6,-1.14331 -22.18065,0.45499 -22.18065,0.45499 0,0 0.0318,-0.31863 -1.83074,8.10899 -1.86265,8.42763 -8.02658,7.53809 -11.31035,3.39587 -3.28379,-4.14221 -2.00608,-11.80252 -2.00608,-11.80252 0,0 -10.16896,0.33229 -16.97258,1.93532 -6.80361,1.60303 -13.71485,1.9986 -15.27907,-1.51109 -1.56422,-3.50972 5.8958,-5.70432 14.77474,-8.69011 8.87894,-2.98579 21.09376,-7.06309 21.09376,-7.06309 l 1.41482,-12.67275 c 0,0 -8.30415,2.12238 -18.43196,3.52541 -10.1278,1.40305 -11.81839,3.55451 -15.0552,1.68592 -3.2368,-1.8686 6.90353,-7.1408 13.87086,-10.02386 6.96732,-2.88306 16.61414,-6.71524 20.76441,-7.36126 4.15029,-0.64603 13.0606,-21.73974 -0.3735,-20.66381 -13.4341,1.07593 -39.9333,14.04658 -72.65403,39.37211 -20.09619,15.55425 -25.92564,54.27041 -25.92564,54.27041 13.64192,-33.21028 38.75215,-78.74244 108.10402,-101.84642 41.99299,-10.82081 81.41669,2.21361 98.65469,7.19559 12.7219,3.67676 69.01,5.42165 108.1682,64.35787 20.0544,30.18366 33.6816,60.24144 18.5101,106.09908 z"
         id="path1026"
         sodipodi:nodetypes="cssssscssscsssssscsccsssccssscsscsssccssssssccsscc" />
      <path
         style="fill:#000000;fill-opacity:1;stroke:#000000;stroke-width:5.82322;stroke-linecap:round;stroke-linejoin:miter;stroke-miterlimit:4;stroke-dasharray:none;stroke-opacity:1"
         d="m 852.25796,293.02848 c 0,0 12.06155,-2.89982 19.99351,-6.87871 7.93195,-3.9789 20.96422,-10.89793 18.57581,-0.89524 -2.38842,10.00269 -21.31296,23.67274 -26.2019,26.5881 -4.88894,2.91537 -8.50272,4.91452 -8.50272,4.91452 z"
         id="path1028" />
      <path
         style="fill:#000000;fill-opacity:1;stroke:#000000;stroke-width:5.82322;stroke-linecap:round;stroke-linejoin:miter;stroke-miterlimit:4;stroke-dasharray:none;stroke-opacity:1"
         d="m 854.62258,279.90866 c 0,0 13.5416,-3.05699 21.2758,-6.85206 7.73419,-3.79509 24.54846,-9.24456 25.08628,-14.79965 0.53783,-5.55508 -9.54093,-4.80471 -15.52567,-5.82226 -5.98475,-1.01755 -17.35977,-3.50279 -17.35977,-3.50279 l -9.99003,15.56492 z"
         id="path1030" />
      <path
         style="fill:#000000;fill-opacity:1;stroke:#000000;stroke-width:0.843944px;stroke-linecap:round;stroke-linejoin:miter;stroke-opacity:1"
         d="m 849.50401,364.5483 c 0,0 3.31116,7.28913 9.07584,5.86776 6.66858,5.66983 3.71943,7.79529 0.58326,11.7066 l -3.47865,3.62215 z"
         id="path900"
         sodipodi:nodetypes="ccccc" />
      <path
         style="fill:#000000;fill-opacity:1;stroke:#000000;stroke-width:0.843944px;stroke-linecap:butt;stroke-linejoin:miter;stroke-opacity:1"
         d="m 1108.8801,141.65562 12.6555,6.14243 c 0,0 17.2722,-15.80696 27.2468,-21.57334 9.9745,-5.76638 18.964,-9.29381 29.3189,-8.89535 10.3549,0.39847 21.1783,0.78705 32.4517,8.08571 5.6367,3.64932 10.7646,8.36932 14.4834,12.17699 3.7187,3.80767 7.2616,12.04478 8.4488,14.73928 5.4306,12.32512 -9.6649,32.12233 -15.3711,46.26505 -7.3837,18.30017 17.7103,-32.21063 19.3267,-32.59904 2.5645,-0.61621 -4.089,-32.41576 -23.0526,-46.66365 -6.9946,-5.25525 -24.7138,-10.07298 -24.7138,-10.07298 l -22.7755,-0.72618 c 0,0 -9.3909,-1.78596 -24.8499,8.06952 -15.4591,9.85548 -33.1689,25.05156 -33.1689,25.05156 z"
         id="path1078"
         sodipodi:nodetypes="ccssssssssccsc" />
      <path
         style="fill:#e9afaf;fill-opacity:1;stroke:#000000;stroke-width:5.82322;stroke-linecap:round;stroke-linejoin:miter;stroke-miterlimit:4;stroke-dasharray:none;stroke-opacity:1"
         d="m 1041.1334,243.87523 c 0,0 -2.7367,1.27782 -4.6822,-1.20154 -1.9454,-2.47936 -2.582,-13.05856 1.8111,-14.13734 4.3931,-1.07878 5.8378,3.54077 5.5683,6.00478 -0.2694,2.46403 1.1156,7.38332 -2.6972,9.3341 z"
         id="path1101" />
    </g>
    <path
       style="fill:#ff2a2a;stroke:#000000;stroke-width:5.7;stroke-linecap:butt;stroke-linejoin:miter;stroke-miterlimit:4;stroke-dasharray:none;stroke-opacity:1"
       d="m 674.67604,264.4046 c 0,0 81.76957,50.33183 -6.4116,85.57945 -88.18118,35.24765 -65.1332,-63.37394 -65.1332,-63.37394 0,0 -25.6687,95.94269 -88.69433,10.45191 -63.02562,-85.49076 59.31637,-73.71421 59.31637,-73.71421 0,0 -113.31081,-19.77244 -53.32966,-81.11367 72.16082,-73.796999 84.66179,40.68898 84.66179,40.68898 0,0 -10.02391,-103.764764 63.50784,-64.48655 73.53174,39.27823 4.86907,85.69031 4.86907,85.69031 0,0 70.47103,-64.19868 78.69425,24.71842 8.22323,88.91707 -77.48053,35.5593 -77.48053,35.5593 z"
       id="path1206"
       sodipodi:nodetypes="cscscscscsc" />
    <path
       style="fill:#ffcc00;stroke:#000000;stroke-width:3.6;stroke-linecap:butt;stroke-linejoin:miter;stroke-miterlimit:4;stroke-dasharray:none;stroke-opacity:1"
       d="m 630.34878,239.00998 10.40023,35.57658 c 0,0 35.55409,11.22038 7.74311,27.03644 -27.81098,15.81606 -14.23757,-23.71299 -14.23757,-23.71299 l -11.0542,-35.64325 -41.57561,20.31192 c 0,0 -9.3955,32.85881 -23.76031,13.78648 -16.88163,-22.41396 17.11546,-18.6529 17.11546,-18.6529 l 43.26319,-21.38029 -36.09345,-34.26577 c 0,0 -33.34414,4.17402 -13.47121,-16.27228 21.53071,-22.15193 20.59085,10.03088 20.59085,10.03088 l 33.30866,34.79457 13.21843,-38.93058 c 0,0 -13.06371,-36.38911 14.50296,-24.98401 22.80809,9.43637 -6.5344,27.04701 -6.5344,27.04701 l -13.89255,37.52105 v 0 l 42.59361,0.001 c 0,0 19.32025,-19.19878 22.05512,-0.46509 4.20979,28.83672 -21.06093,8.69092 -21.06093,8.69092 z"
       id="path1208"
       sodipodi:nodetypes="ccscccscccscccsccccscc" />
    <path
       style="fill:#ff8080;stroke:#000000;stroke-width:4.9;stroke-linecap:butt;stroke-linejoin:miter;stroke-miterlimit:4;stroke-dasharray:none;stroke-opacity:1"
       d="m 563.05749,556.86761 c 0,0 17.84585,74.05479 -51.49055,44.57394 -69.33642,-29.48085 -1.18819,-72.09011 -1.18819,-72.09011 0,0 -68.12388,39.63604 -55.75152,-43.72161 12.37237,-83.35762 74.61842,-8.30912 74.61842,-8.30912 0,0 -52.69086,-74.49737 15.37871,-75.47183 81.89162,-1.17234 24.86847,70.24577 24.86847,70.24577 0,0 52.41816,-63.99943 71.81371,-0.77216 19.39552,63.22729 -45.20558,50.94516 -45.20558,50.94516 0,0 75.57047,3.28409 30.44666,57.92097 -45.12379,54.63687 -63.49013,-23.32101 -63.49013,-23.32101 z"
       id="path1214"
       sodipodi:nodetypes="cscscscscsc" />
    <path
       style="fill:#ffdd55;stroke:#000000;stroke-width:3.1;stroke-linecap:butt;stroke-linejoin:miter;stroke-miterlimit:4;stroke-dasharray:none;stroke-opacity:1"
       d="m 551.73838,512.39593 -15.99331,25.30111 c 0,0 13.72637,26.19831 -10.7707,19.54513 -24.49707,-6.65317 5.2571,-21.30698 5.2571,-21.30698 l 15.66266,-25.70436 -38.45622,-8.66765 c 0,0 -23.67137,13.23669 -21.0824,-5.52992 3.0426,-22.05468 20.06655,-0.92487 20.06655,-0.92487 l 40.00347,9.01023 -2.96969,-36.76484 c 0,0 -20.39928,-17.22678 2.22218,-17.61874 24.50852,-0.42463 5.06622,17.62989 5.06622,17.62989 l 1.31659,35.96326 27.91307,-8.44996 c 0,0 13.01005,-27.78394 22.13899,-5.94875 7.55307,18.06601 -18.80979,11.56623 -18.80979,11.56623 l -27.50372,7.27968 v 0 l 29.99024,30.18967 c 0,0 21.61247,9.9e-4 12.66943,12.07284 -13.766,18.58219 -16.71255,-6.88778 -16.71255,-6.88778 z"
       id="path1216"
       sodipodi:nodetypes="ccscccscccscccsccccscc" />
    <path
       style="fill:#ff5555;stroke:#000000;stroke-width:4;stroke-linecap:butt;stroke-linejoin:miter;stroke-miterlimit:4;stroke-dasharray:none;stroke-opacity:1"
       d="m 748.5058,462.98977 c 0,0 -16.32763,44.50564 -42.01712,5.3578 -25.68949,-39.1479 24.26573,-37.75168 24.26573,-37.75168 0,0 -48.9165,-2.92796 -13.74787,-41.84643 35.16862,-38.91847 41.464,21.39168 41.464,21.39168 0,0 -1.54317,-56.73421 34.00205,-33.79837 42.76291,27.59314 -11.38061,44.9509 -11.38061,44.9509 0,0 49.2012,-15.1007 37.41202,24.32997 -11.78918,39.43068 -40.96508,10.82238 -40.96508,10.82238 0,0 37.95526,27.72477 -4.24167,40.4876 -42.19693,12.76284 -24.79145,-33.94385 -24.79145,-33.94385 z"
       id="path1220"
       sodipodi:nodetypes="cscscscscsc" />
    <path
       style="fill:#ffd42a;stroke:#000000;stroke-width:1.8;stroke-linecap:butt;stroke-linejoin:miter;stroke-miterlimit:4;stroke-dasharray:none;stroke-opacity:1"
       d="m 759.23793,440.57333 -25.32298,9.62735 c 0,0 -1.94183,18.29751 -12.31669,6.41532 -10.37489,-11.88221 10.07286,-9.22664 10.07286,-9.22664 l 25.29112,-9.95008 -18.65415,-25.9771 c 0,0 -16.81232,-1.29496 -8.99628,-10.12447 9.18545,-10.37651 10.69858,6.43109 10.69858,6.43109 l 19.33621,26.68737 14.80769,-29.82689 c 0,0 -5.28676,-15.70775 6.54944,-8.12079 12.82355,8.21986 -2.8331,10.94598 -2.8331,10.94598 l -15.33639,28.53284 26.55802,3.42352 c 0,0 16.31844,-9.91184 13.50443,4.54242 -2.32827,11.95913 -13.72116,-0.48613 -13.72116,-0.48613 l -25.94238,-3.88875 v 0 l 6.39054,26.35012 c 0,0 11.17868,7.44304 2.38658,10.61659 -13.53369,4.88502 -6.26739,-9.32304 -6.26739,-9.32304 z"
       id="path1222"
       sodipodi:nodetypes="ccscccscccscccsccccscc" />
    <g
       id="g1001"
       transform="matrix(0.78065945,0,0,0.77818067,187.85797,203.97261)"
       style="fill:#ffaaaa;stroke:#bc8c8c;stroke-width:1.28301;stroke-opacity:1">
      <path
         id="path989"
         style="color:#000000;font-style:normal;font-variant:normal;font-weight:normal;font-stretch:normal;font-size:medium;line-height:normal;font-family:sans-serif;font-variant-ligatures:normal;font-variant-position:normal;font-variant-caps:normal;font-variant-numeric:normal;font-variant-alternates:normal;font-variant-east-asian:normal;font-feature-settings:normal;font-variation-settings:normal;text-indent:0;text-align:start;text-decoration:none;text-decoration-line:none;text-decoration-style:solid;text-decoration-color:#000000;letter-spacing:normal;word-spacing:normal;text-transform:none;writing-mode:lr-tb;direction:ltr;text-orientation:mixed;dominant-baseline:auto;baseline-shift:baseline;text-anchor:start;white-space:normal;shape-padding:0;shape-margin:0;inline-size:0;clip-rule:nonzero;display:inline;overflow:visible;visibility:visible;opacity:1;isolation:auto;mix-blend-mode:normal;color-interpolation:sRGB;color-interpolation-filters:linearRGB;solid-color:#000000;solid-opacity:1;vector-effect:none;fill:#ffaaaa;fill-opacity:1;fill-rule:nonzero;stroke:#bc8c8c;stroke-width:8.21124;stroke-linecap:butt;stroke-linejoin:miter;stroke-miterlimit:4;stroke-dasharray:none;stroke-dashoffset:0;stroke-opacity:1;color-rendering:auto;image-rendering:auto;shape-rendering:auto;text-rendering:auto;enable-background:accumulate;stop-color:#000000;stop-opacity:1"
         d="m -45.23438,612.52091 c -15.80362,0.36486 -31.50066,4.68279 -45.23592,12.51492 -17.43531,9.86391 -31.65496,25.29574 -40.03044,43.49569 -6.03923,12.9893 -9.04387,27.34568 -8.87816,41.66208 v 31.9758 h 21 c 0.0161,-11.7259 -0.0328,-23.4522 0.0254,-35.1778 0.34419,-14.0557 4.71243,-27.98847 12.52059,-39.68626 9.43706,-14.29405 23.87033,-25.21769 40.22562,-30.3299 8.01305,-2.55294 16.45287,-3.63854 24.85144,-3.48187 6.6946,0.0285 13.3907,-0.0601 20.08431,0.0504 16.52931,0.48792 32.8433,6.24559 46.02951,16.22226 13.90445,10.42006 24.31896,25.4211 29.12,42.12837 7.25391,23.6324 -5.93283,58.5195 -20.3508,72.7861 -31.6297098,31.2977 -50.74242,47.2052 -170.94683,150.2145 -0.12141,23.9514 0.18208,28.7664 0.18208,28.7664 l 218.17274,0.2753 v -21 l -195.73152,0.3542 C -72.72111,885.491 -22.08743,844.9387 15.62891,809.5365 33.25804,792.9891 52.96292,778.1692 63.97816,756.6466 78.45217,727.1023 80.47022,691.1014 64.9184,663.31298 54.87227,645.97791 39.59983,631.72989 21.60244,622.92281 7.4108102,615.91716 -8.43711,612.35459 -24.25742,612.49352 c -6.9922,0.016 -13.98505,-0.0334 -20.97695,0.0273 z"
         sodipodi:nodetypes="cccccccccccccscccccscccccc" />
      <path
         id="path991"
         style="color:#000000;font-style:normal;font-variant:normal;font-weight:normal;font-stretch:normal;font-size:medium;line-height:normal;font-family:sans-serif;font-variant-ligatures:normal;font-variant-position:normal;font-variant-caps:normal;font-variant-numeric:normal;font-variant-alternates:normal;font-variant-east-asian:normal;font-feature-settings:normal;font-variation-settings:normal;text-indent:0;text-align:start;text-decoration:none;text-decoration-line:none;text-decoration-style:solid;text-decoration-color:#000000;letter-spacing:normal;word-spacing:normal;text-transform:none;writing-mode:lr-tb;direction:ltr;text-orientation:mixed;dominant-baseline:auto;baseline-shift:baseline;text-anchor:start;white-space:normal;shape-padding:0;shape-margin:0;inline-size:0;clip-rule:nonzero;display:inline;overflow:visible;visibility:visible;opacity:1;isolation:auto;mix-blend-mode:normal;color-interpolation:sRGB;color-interpolation-filters:linearRGB;solid-color:#000000;solid-opacity:1;vector-effect:none;fill:#ffaaaa;fill-opacity:1;fill-rule:nonzero;stroke:#bc8c8c;stroke-width:8.21124;stroke-linecap:butt;stroke-linejoin:miter;stroke-miterlimit:4;stroke-dasharray:none;stroke-dashoffset:0;stroke-opacity:1;color-rendering:auto;image-rendering:auto;shape-rendering:auto;text-rendering:auto;enable-background:accumulate;stop-color:#000000;stop-opacity:1"
         d="m 199.21768,614.56201 c -15.9079,0.16887 -31.75724,4.07343 -45.9144,11.33268 -16.86436,8.61979 -31.27807,21.95063 -41.18108,38.09513 -9.4435,15.29733 -14.76213,33.10008 -15.26864,51.06998 -0.10985,6.5392 -0.0213,13.0807 -0.0499,19.6209 0.008,38.2217 -0.0148,76.4438 0.0111,114.6654 0.21385,17.3267 4.87326,34.5762 13.45173,49.6342 10.17269,17.9897 25.85003,32.8078 44.39652,41.9298 14.43805,7.1618 30.57444,10.8175 46.68583,10.6802 7.89986,-0.02 15.80059,0.054 23.69989,-0.028 17.5511,-0.4324 34.96556,-5.4384 50.04834,-14.4271 17.31115,-10.2393 31.52144,-25.6306 40.33154,-43.7124 7.06,-14.3756 10.6457,-30.4159 10.49016,-46.4255 -0.007,-43.3829 0.0124,-86.7659 -0.01,-130.1487 -0.19915,-17.2605 -4.80876,-34.44839 -13.31356,-49.47202 -9.826,-17.48 -24.83983,-31.98885 -42.64917,-41.20609 -14.77639,-7.69928 -31.43998,-11.7009 -48.09856,-11.61639 -7.54334,0.005 -15.08675,-0.01 -22.63005,0.007 z m 1.33456,20.06133 c 8.03238,0.0216 16.0656,-0.0441 24.0974,0.0343 15.00966,0.39053 29.87462,4.9565 42.51909,13.052 14.58073,9.28764 26.17886,23.18478 32.62375,39.23279 4.23057,10.40257 6.24064,21.66907 6.05753,32.88967 -0.007,43.1203 0.0125,86.2407 -0.01,129.3609 -0.1866,15.3559 -4.73333,30.6277 -13.00584,43.5683 -9.62565,15.1841 -24.26799,27.127 -41.11072,33.431 -9.92406,3.7655 -20.57374,5.5176 -31.17844,5.3374 -7.49081,-0.025 -14.98253,0.038 -22.47279,-0.045 -15.60111,-0.4118 -31.04456,-5.3387 -43.99881,-14.0422 -14.57849,-9.7199 -25.98353,-24.1195 -32.03255,-40.5701 -3.65616,-9.8179 -5.35007,-20.3292 -5.169,-30.7962 0.006,-43.0242 -0.0122,-86.0486 0.01,-129.0728 0.18491,-15.2788 4.68634,-30.47282 12.87472,-43.37471 9.61776,-15.27298 24.29786,-27.29963 41.20459,-33.63775 9.42675,-3.57859 19.5113,-5.3786 29.59122,-5.3678 z" />
      <path
         id="path993"
         style="color:#000000;font-style:normal;font-variant:normal;font-weight:normal;font-stretch:normal;font-size:medium;line-height:normal;font-family:sans-serif;font-variant-ligatures:normal;font-variant-position:normal;font-variant-caps:normal;font-variant-numeric:normal;font-variant-alternates:normal;font-variant-east-asian:normal;font-feature-settings:normal;font-variation-settings:normal;text-indent:0;text-align:start;text-decoration:none;text-decoration-line:none;text-decoration-style:solid;text-decoration-color:#000000;letter-spacing:normal;word-spacing:normal;text-transform:none;writing-mode:lr-tb;direction:ltr;text-orientation:mixed;dominant-baseline:auto;baseline-shift:baseline;text-anchor:start;white-space:normal;shape-padding:0;shape-margin:0;inline-size:0;clip-rule:nonzero;display:inline;overflow:visible;visibility:visible;opacity:1;isolation:auto;mix-blend-mode:normal;color-interpolation:sRGB;color-interpolation-filters:linearRGB;solid-color:#000000;solid-opacity:1;vector-effect:none;fill:#ffaaaa;fill-opacity:1;fill-rule:nonzero;stroke:#bc8c8c;stroke-width:8.21124;stroke-linecap:butt;stroke-linejoin:miter;stroke-miterlimit:4;stroke-dasharray:none;stroke-dashoffset:0;stroke-opacity:1;color-rendering:auto;image-rendering:auto;shape-rendering:auto;text-rendering:auto;enable-background:accumulate;stop-color:#000000;stop-opacity:1"
         d="m 440.76562,612.52091 c -15.80362,0.36486 -31.50066,4.68279 -45.23592,12.51492 -17.43531,9.86391 -31.65496,25.29574 -40.03044,43.49569 -6.03923,12.9893 -9.04387,27.34568 -8.87816,41.66208 v 31.9758 h 21 c 0.0161,-11.7259 -0.0328,-23.4522 0.0254,-35.1778 0.34419,-14.0557 4.71243,-27.98847 12.52059,-39.68626 9.43706,-14.29405 23.87033,-25.21769 40.22562,-30.3299 8.01305,-2.55294 16.45287,-3.63854 24.85144,-3.48187 6.6946,0.0285 13.3907,-0.0601 20.08431,0.0504 16.52931,0.48792 32.8433,6.24559 46.02951,16.22226 13.90445,10.42006 24.31896,25.4211 29.12,42.12837 7.25391,23.6324 -5.93283,58.5195 -20.3508,72.7861 -31.62971,31.2977 -50.74242,47.2052 -170.94683,150.2145 -0.12141,23.9514 0.18208,28.7664 0.18208,28.7664 l 218.17274,0.2753 v -21 l -195.73152,0.3542 c 41.47525,-37.8001 92.10893,-78.3524 129.82527,-113.7546 17.62913,-16.5474 37.33401,-31.3673 48.34925,-52.8899 14.47401,-29.5443 16.49206,-65.5452 0.94024,-93.33362 -10.04613,-17.33507 -25.31857,-31.58309 -43.31596,-40.39017 -14.19163,-7.00565 -30.03955,-10.56822 -45.85986,-10.42929 -6.9922,0.016 -13.98505,-0.0334 -20.97695,0.0273 z"
         sodipodi:nodetypes="cccccccccccccscccccscccccc" />
      <path
         id="path995"
         style="color:#000000;font-style:normal;font-variant:normal;font-weight:normal;font-stretch:normal;font-size:medium;line-height:normal;font-family:sans-serif;font-variant-ligatures:normal;font-variant-position:normal;font-variant-caps:normal;font-variant-numeric:normal;font-variant-alternates:normal;font-variant-east-asian:normal;font-feature-settings:normal;font-variation-settings:normal;text-indent:0;text-align:start;text-decoration:none;text-decoration-line:none;text-decoration-style:solid;text-decoration-color:#000000;letter-spacing:normal;word-spacing:normal;text-transform:none;writing-mode:lr-tb;direction:ltr;text-orientation:mixed;dominant-baseline:auto;baseline-shift:baseline;text-anchor:start;white-space:normal;shape-padding:0;shape-margin:0;inline-size:0;clip-rule:nonzero;display:inline;overflow:visible;visibility:visible;opacity:1;isolation:auto;mix-blend-mode:normal;color-interpolation:sRGB;color-interpolation-filters:linearRGB;solid-color:#000000;solid-opacity:1;vector-effect:none;fill:#ffaaaa;fill-opacity:1;fill-rule:nonzero;stroke:#bc8c8c;stroke-width:8.21124;stroke-linecap:butt;stroke-linejoin:miter;stroke-miterlimit:4;stroke-dasharray:none;stroke-dashoffset:0;stroke-opacity:1;color-rendering:auto;image-rendering:auto;shape-rendering:auto;text-rendering:auto;enable-background:accumulate;stop-color:#000000;stop-opacity:1"
         d="m 680.76562,612.52091 c -15.80362,0.36486 -31.50066,4.68279 -45.23592,12.51492 -17.43531,9.86391 -31.65496,25.29574 -40.03044,43.49569 -6.03923,12.9893 -9.04387,27.34568 -8.87816,41.66208 v 31.9758 h 21 c 0.0161,-11.7259 -0.0328,-23.4522 0.0254,-35.1778 0.34419,-14.0557 4.71243,-27.98847 12.52059,-39.68626 9.43706,-14.29405 23.87033,-25.21769 40.22562,-30.3299 8.01305,-2.55294 16.45287,-3.63854 24.85144,-3.48187 6.6946,0.0285 13.3907,-0.0601 20.08431,0.0504 16.52931,0.48792 32.8433,6.24559 46.02951,16.22226 13.90445,10.42006 24.31896,25.4211 29.12,42.12837 7.25391,23.6324 -5.93283,58.5195 -20.3508,72.7861 -31.62971,31.2977 -50.74242,47.2052 -170.94683,150.2145 -0.12141,23.9514 0.18208,28.7664 0.18208,28.7664 l 218.17274,0.2753 v -21 l -195.73152,0.3542 c 41.47525,-37.8001 92.10893,-78.3524 129.82527,-113.7546 17.62913,-16.5474 37.33401,-31.3673 48.34925,-52.8899 14.47401,-29.5443 16.49206,-65.5452 0.94024,-93.33362 -10.04613,-17.33507 -25.31857,-31.58309 -43.31596,-40.39017 -14.19163,-7.00565 -30.03955,-10.56822 -45.85986,-10.42929 -6.9922,0.016 -13.98505,-0.0334 -20.97695,0.0273 z"
         sodipodi:nodetypes="cccccccccccccscccccscccccc" />
    </g>
    <path
       id="path951"
       style="color:#000000;font-style:normal;font-variant:normal;font-weight:normal;font-stretch:normal;font-size:medium;line-height:normal;font-family:sans-serif;font-variant-ligatures:normal;font-variant-position:normal;font-variant-caps:normal;font-variant-numeric:normal;font-variant-alternates:normal;font-variant-east-asian:normal;font-feature-settings:normal;font-variation-settings:normal;text-indent:0;text-align:start;text-decoration:none;text-decoration-line:none;text-decoration-style:solid;text-decoration-color:#000000;letter-spacing:normal;word-spacing:normal;text-transform:none;writing-mode:lr-tb;direction:ltr;text-orientation:mixed;dominant-baseline:auto;baseline-shift:baseline;text-anchor:start;white-space:normal;shape-padding:0;shape-margin:0;inline-size:0;clip-rule:nonzero;display:inline;overflow:visible;visibility:visible;opacity:1;isolation:auto;mix-blend-mode:normal;color-interpolation:sRGB;color-interpolation-filters:linearRGB;solid-color:#000000;solid-opacity:1;vector-effect:none;fill:#ffe680;fill-opacity:1;fill-rule:nonzero;stroke:#000000;stroke-width:6.4;stroke-linecap:butt;stroke-linejoin:miter;stroke-miterlimit:4;stroke-dasharray:none;stroke-dashoffset:0;stroke-opacity:1;color-rendering:auto;image-rendering:auto;shape-rendering:auto;text-rendering:auto;enable-background:accumulate;stop-color:#000000;stop-opacity:1"
       d="m 140.05477,668.17365 c -12.33724,0.28393 -24.59129,3.64406 -35.31385,9.73887 -13.611038,7.67591 -24.711742,19.68466 -31.250139,33.84751 -4.714582,10.10802 -7.060183,21.27988 -6.93082,32.42062 V 769.0636 H 82.95381 c 0.01257,-9.12487 -0.02561,-18.25005 0.01983,-27.37468 0.268696,-10.93788 3.678803,-21.78009 9.774317,-30.88308 7.367133,-11.12335 18.634593,-19.62392 31.402513,-23.60214 6.25546,-1.98665 12.84408,-2.83144 19.40051,-2.70953 5.2262,0.0222 10.45357,-0.0468 15.679,0.0392 12.90377,0.37969 25.63944,4.8602 35.93338,12.62385 10.85464,8.10869 18.98482,19.78221 22.7328,32.78349 5.66283,18.39027 -4.63152,45.53874 -15.88705,56.64073 -24.69203,24.35527 -39.61255,36.73418 -133.451252,116.89402 -0.09478,18.63852 0.142143,22.38546 0.142143,22.38546 l 170.318609,0.21423 v -16.34177 l -152.799661,0.27563 c 32.378041,-29.41531 71.905711,-60.97232 101.349321,-88.52163 13.76235,-12.87687 29.14515,-24.40943 37.7443,-41.1579 11.29927,-22.9908 12.87468,-51.00601 0.73401,-72.63042 -7.84261,-13.48982 -19.76518,-24.57735 -33.81501,-31.43085 -11.07883,-5.45166 -23.45066,-8.22398 -35.80094,-8.11587 -5.45852,0.0124 -10.91756,-0.026 -16.37585,0.0212 z"
       sodipodi:nodetypes="cccccccccccccscccccscccccc" />
    <path
       id="path971"
       style="color:#000000;font-style:normal;font-variant:normal;font-weight:normal;font-stretch:normal;font-size:medium;line-height:normal;font-family:sans-serif;font-variant-ligatures:normal;font-variant-position:normal;font-variant-caps:normal;font-variant-numeric:normal;font-variant-alternates:normal;font-variant-east-asian:normal;font-feature-settings:normal;font-variation-settings:normal;text-indent:0;text-align:start;text-decoration:none;text-decoration-line:none;text-decoration-style:solid;text-decoration-color:#000000;letter-spacing:normal;word-spacing:normal;text-transform:none;writing-mode:lr-tb;direction:ltr;text-orientation:mixed;dominant-baseline:auto;baseline-shift:baseline;text-anchor:start;white-space:normal;shape-padding:0;shape-margin:0;inline-size:0;clip-rule:nonzero;display:inline;overflow:visible;visibility:visible;opacity:1;isolation:auto;mix-blend-mode:normal;color-interpolation:sRGB;color-interpolation-filters:linearRGB;solid-color:#000000;solid-opacity:1;vector-effect:none;fill:#ffe680;fill-opacity:1;fill-rule:nonzero;stroke:#000000;stroke-width:6.4;stroke-linecap:butt;stroke-linejoin:miter;stroke-miterlimit:4;stroke-dasharray:none;stroke-dashoffset:0;stroke-opacity:1;color-rendering:auto;image-rendering:auto;shape-rendering:auto;text-rendering:auto;enable-background:accumulate;stop-color:#000000;stop-opacity:1"
       d="m 330.88858,669.762 c -12.41865,0.13141 -24.79159,3.16986 -35.84351,8.81887 -13.16532,6.70776 -24.41752,17.08156 -32.1484,29.64489 -7.37216,11.90409 -11.52419,25.75785 -11.91961,39.74168 -0.0858,5.08868 -0.0166,10.17914 -0.0389,15.2686 0.006,29.74339 -0.0116,59.48709 0.009,89.2304 0.16695,13.4833 3.80436,26.90653 10.50122,38.62437 7.94141,13.99924 20.18007,25.5304 34.65857,32.62896 11.2712,5.57318 23.86822,8.41797 36.44573,8.31113 6.1671,-0.0156 12.33488,0.042 18.50154,-0.0218 13.70144,-0.33649 27.2962,-4.23206 39.07071,-11.22689 13.51412,-7.96803 24.60751,-19.94524 31.4852,-34.01614 5.51146,-11.18682 8.31067,-23.66907 8.18924,-36.12743 -0.005,-33.75974 0.01,-67.51955 -0.008,-101.2792 -0.15547,-13.43179 -3.75401,-26.80708 -10.39336,-38.49817 -7.67076,-13.6026 -19.39145,-24.89311 -33.29448,-32.06579 -11.53532,-5.99143 -24.54391,-9.10541 -37.54859,-9.03965 -5.88878,0.004 -11.77762,-0.008 -17.66636,0.005 z m 1.04184,15.61134 c 6.27055,0.0168 12.54176,-0.0343 18.81186,0.0267 11.71743,0.3039 23.32191,3.85705 33.19293,10.15681 11.38259,7.22747 20.43677,18.04195 25.46804,30.5302 3.30263,8.09508 4.87181,16.86245 4.72887,25.59411 -0.005,33.55538 0.01,67.11084 -0.008,100.66615 -0.14567,11.94966 -3.69512,23.83388 -10.15313,33.90401 -7.51436,11.81597 -18.94504,21.10971 -32.09347,26.01536 -7.74731,2.93024 -16.06109,4.29369 -24.33975,4.15346 -5.84777,-0.0195 -11.69625,0.0296 -17.54359,-0.035 -12.17916,-0.32045 -24.23523,-4.15447 -34.34809,-10.92737 -11.38084,-7.56384 -20.28429,-18.76933 -25.00651,-31.57087 -2.85422,-7.6401 -4.17659,-15.81979 -4.03523,-23.965 0.005,-33.4806 -0.01,-66.96136 0.008,-100.44196 0.14435,-11.88967 3.65843,-23.71336 10.05077,-33.75336 7.50819,-11.88514 18.96835,-21.24405 32.16675,-26.17625 7.35908,-2.78479 15.23168,-4.18552 23.10067,-4.17712 z" />
    <path
       id="path981"
       style="color:#000000;font-style:normal;font-variant:normal;font-weight:normal;font-stretch:normal;font-size:medium;line-height:normal;font-family:sans-serif;font-variant-ligatures:normal;font-variant-position:normal;font-variant-caps:normal;font-variant-numeric:normal;font-variant-alternates:normal;font-variant-east-asian:normal;font-feature-settings:normal;font-variation-settings:normal;text-indent:0;text-align:start;text-decoration:none;text-decoration-line:none;text-decoration-style:solid;text-decoration-color:#000000;letter-spacing:normal;word-spacing:normal;text-transform:none;writing-mode:lr-tb;direction:ltr;text-orientation:mixed;dominant-baseline:auto;baseline-shift:baseline;text-anchor:start;white-space:normal;shape-padding:0;shape-margin:0;inline-size:0;clip-rule:nonzero;display:inline;overflow:visible;visibility:visible;opacity:1;isolation:auto;mix-blend-mode:normal;color-interpolation:sRGB;color-interpolation-filters:linearRGB;solid-color:#000000;solid-opacity:1;vector-effect:none;fill:#ffe680;fill-opacity:1;fill-rule:nonzero;stroke:#000000;stroke-width:6.4;stroke-linecap:butt;stroke-linejoin:miter;stroke-miterlimit:4;stroke-dasharray:none;stroke-dashoffset:0;stroke-opacity:1;color-rendering:auto;image-rendering:auto;shape-rendering:auto;text-rendering:auto;enable-background:accumulate;stop-color:#000000;stop-opacity:1"
       d="m 519.45526,668.17365 c -12.33724,0.28393 -24.59128,3.64406 -35.31385,9.73887 -13.61103,7.67591 -24.71174,19.68466 -31.25014,33.84751 -4.71458,10.10802 -7.06018,21.27988 -6.93082,32.42062 v 24.88295 h 16.39385 c 0.0126,-9.12487 -0.0256,-18.25005 0.0198,-27.37468 0.2687,-10.93788 3.6788,-21.78009 9.77432,-30.88308 7.36713,-11.12335 18.6346,-19.62392 31.40251,-23.60214 6.25546,-1.98665 12.84409,-2.83144 19.40051,-2.70953 5.2262,0.0222 10.45358,-0.0468 15.67901,0.0392 12.90376,0.37969 25.63943,4.8602 35.93337,12.62385 10.85464,8.10869 18.98482,19.78221 22.7328,32.78349 5.66283,18.39027 -4.63152,45.53874 -15.88704,56.64073 -24.69203,24.35527 -39.61255,36.73418 -133.45126,116.89402 -0.0948,18.63852 0.14214,22.38546 0.14214,22.38546 l 170.31861,0.21423 v -16.34179 l -152.79966,0.27563 c 32.37805,-29.41531 71.90571,-60.97232 101.34933,-88.52163 13.76234,-12.87687 29.14514,-24.40943 37.74429,-41.1579 11.29928,-22.9908 12.87469,-51.00601 0.73401,-72.63042 -7.8426,-13.48982 -19.76518,-24.57735 -33.81501,-31.43085 -11.07883,-5.45166 -23.45066,-8.22398 -35.80093,-8.11587 -5.45853,0.0124 -10.91757,-0.026 -16.37586,0.0212 z"
       sodipodi:nodetypes="cccccccccccccscccccscccccc" />
    <path
       id="path983"
       style="color:#000000;font-style:normal;font-variant:normal;font-weight:normal;font-stretch:normal;font-size:medium;line-height:normal;font-family:sans-serif;font-variant-ligatures:normal;font-variant-position:normal;font-variant-caps:normal;font-variant-numeric:normal;font-variant-alternates:normal;font-variant-east-asian:normal;font-feature-settings:normal;font-variation-settings:normal;text-indent:0;text-align:start;text-decoration:none;text-decoration-line:none;text-decoration-style:solid;text-decoration-color:#000000;letter-spacing:normal;word-spacing:normal;text-transform:none;writing-mode:lr-tb;direction:ltr;text-orientation:mixed;dominant-baseline:auto;baseline-shift:baseline;text-anchor:start;white-space:normal;shape-padding:0;shape-margin:0;inline-size:0;clip-rule:nonzero;display:inline;overflow:visible;visibility:visible;opacity:1;isolation:auto;mix-blend-mode:normal;color-interpolation:sRGB;color-interpolation-filters:linearRGB;solid-color:#000000;solid-opacity:1;vector-effect:none;fill:#ffe680;fill-opacity:1;fill-rule:nonzero;stroke:#000000;stroke-width:6.4;stroke-linecap:butt;stroke-linejoin:miter;stroke-miterlimit:4;stroke-dasharray:none;stroke-dashoffset:0;stroke-opacity:1;color-rendering:auto;image-rendering:auto;shape-rendering:auto;text-rendering:auto;enable-background:accumulate;stop-color:#000000;stop-opacity:1"
       d="m 706.81353,668.17365 c -12.33724,0.28393 -24.59129,3.64406 -35.31385,9.73887 -13.61104,7.67591 -24.71174,19.68466 -31.25014,33.84751 -4.71458,10.10802 -7.06018,21.27988 -6.93082,32.42062 v 24.88295 h 16.39385 c 0.0126,-9.12487 -0.0256,-18.25005 0.0198,-27.37468 0.26869,-10.93788 3.6788,-21.78009 9.77432,-30.88308 7.36713,-11.12335 18.63459,-19.62392 31.40251,-23.60214 6.25546,-1.98665 12.84408,-2.83144 19.40051,-2.70953 5.2262,0.0222 10.45357,-0.0468 15.679,0.0392 12.90377,0.37969 25.63944,4.8602 35.93338,12.62385 10.85464,8.10869 18.98482,19.78221 22.7328,32.78349 5.66283,18.39027 -4.63152,45.53874 -15.88704,56.64073 -24.69204,24.35527 -39.61255,36.73418 -133.45126,116.89402 -0.0948,18.63852 0.14214,22.38546 0.14214,22.38546 l 170.31861,0.21423 v -16.34179 l -152.79966,0.27563 c 32.37805,-29.41531 71.90571,-60.97232 101.34932,-88.52163 13.76235,-12.87687 29.14515,-24.40943 37.7443,-41.1579 11.29928,-22.9908 12.87468,-51.00601 0.73401,-72.63042 -7.84261,-13.48982 -19.76518,-24.57735 -33.81501,-31.43085 -11.07883,-5.45166 -23.45066,-8.22398 -35.80094,-8.11587 -5.45852,0.0124 -10.91756,-0.026 -16.37585,0.0212 z"
       sodipodi:nodetypes="cccccccccccccscccccscccccc" />
  </g>
</svg>
